<svg width="28" height="28" viewBox="0 0 28 28" fill="none" xmlns="http://www.w3.org/2000/svg">
<g clip-path="url(#clip0_3263_61087)">
<path d="M14.603 19.0898C14.2489 18.7357 13.7178 18.7357 13.3638 19.0898L11.0624 21.3911C10.7084 21.7452 10.7084 22.2763 11.0624 22.6303C11.4165 22.9844 11.9476 22.9844 12.3016 22.6303L13.1277 21.8042V27.1151C13.1277 27.5871 13.5113 28.0002 14.0129 28.0002C14.5145 28.0002 14.898 27.6166 14.898 27.1151V21.8042L15.7242 22.6303C15.9012 22.8074 16.1077 22.8959 16.3438 22.8959C16.5798 22.8959 16.7863 22.8074 16.9634 22.6303C17.3174 22.2763 17.3174 21.7452 16.9634 21.3911L14.603 19.0898Z" fill="white"/>
<path d="M27.1151 13.1297H21.8042L22.6303 12.3036C22.9844 11.9495 22.9844 11.4184 22.6303 11.0644C22.2763 10.7103 21.7452 10.7103 21.3911 11.0644L19.0898 13.3657C18.9127 13.5428 18.8242 13.7493 18.8242 13.9853C18.8242 14.2214 18.9127 14.4279 19.0898 14.6049L21.3911 16.9063C21.5682 17.0833 21.7747 17.1719 22.0107 17.1719C22.2468 17.1719 22.4533 17.0833 22.6303 16.9063C22.9844 16.5523 22.9844 16.0212 22.6303 15.6671L21.8042 14.9H27.1151C27.5871 14.9 28.0002 14.5164 28.0002 14.0148C28.0002 13.5428 27.6166 13.1297 27.1151 13.1297Z" fill="white"/>
<path d="M13.3659 8.93994C13.543 9.11696 13.7495 9.20548 13.9855 9.20548C14.2216 9.20548 14.4281 9.11696 14.6051 8.93994L16.9065 6.63857C17.2606 6.28451 17.2606 5.75342 16.9065 5.39937C16.5525 5.04531 16.0214 5.04531 15.6673 5.39937L14.8707 6.196V0.885142C14.8707 0.413066 14.4871 0 13.9855 0C13.484 0 13.1004 0.383562 13.1004 0.885142V6.196L12.2743 5.36986C11.9202 5.01581 11.3891 5.01581 11.0351 5.36986C10.681 5.72392 10.681 6.255 11.0351 6.60906L13.3659 8.93994Z" fill="white"/>
<path d="M6.60906 11.0644C6.25501 10.7103 5.72392 10.7103 5.36986 11.0644C5.01581 11.4184 5.01581 11.9495 5.36986 12.3036L6.196 13.1297H0.885142C0.413066 13.1297 0 13.5133 0 14.0148C0 14.4869 0.383562 14.9 0.885142 14.9H6.196L5.36986 15.7261C5.01581 16.0802 5.01581 16.6113 5.36986 16.9653C5.54689 17.1423 5.75342 17.2309 5.98946 17.2309C6.2255 17.2309 6.43203 17.1423 6.60906 16.9653L8.91043 14.6639C9.26449 14.3099 9.26449 13.7788 8.91043 13.4247L6.60906 11.0644Z" fill="white"/>
<path d="M13.9833 10.5625C12.095 10.5625 10.5312 12.0967 10.5312 14.0146C10.5312 15.9324 12.0655 17.4666 13.9833 17.4666C15.9011 17.4666 17.4354 15.9029 17.4354 14.0146C17.4354 12.1263 15.8716 10.5625 13.9833 10.5625ZM13.9833 15.6963C13.0392 15.6963 12.3015 14.9292 12.3015 14.0146C12.3015 13.0999 13.0687 12.3328 13.9833 12.3328C14.898 12.3328 15.6651 13.0999 15.6651 14.0146C15.6651 14.9292 14.9275 15.6963 13.9833 15.6963Z" fill="white"/>
</g>
<defs>
<clipPath id="clip0_3263_61087">
<rect width="28" height="28" fill="white"/>
</clipPath>
</defs>
</svg>
