<svg width="23" height="20" viewBox="0 0 23 20" fill="none" xmlns="http://www.w3.org/2000/svg">
<g clip-path="url(#clip0_3263_63297)">
<path d="M3.1848 9.11523H6.83194C7.13 9.11523 7.37174 9.35696 7.37174 9.65501V12.6285C7.37174 12.9265 7.13 13.1683 6.83194 13.1683H3.1848C2.88673 13.1683 2.645 12.9265 2.645 12.6285V9.65501C2.645 9.35696 2.88673 9.11523 3.1848 9.11523ZM20.1719 7.226H21.9228V3.90284H3.79031V5.89298H18.2803C18.8342 5.89298 19.3341 6.11828 19.6979 6.48205C19.9067 6.69092 20.071 6.94438 20.1696 7.22835L20.1719 7.226ZM21.9228 8.30322H20.2893V13.0275H20.9957C21.2515 13.0275 21.4815 12.9218 21.6505 12.7552C21.8195 12.5862 21.9228 12.3539 21.9228 12.1004V8.30322ZM3.79031 2.82328H21.9228V2.00657C21.9228 1.75076 21.8171 1.52077 21.6505 1.3518C21.4815 1.18282 21.2492 1.07956 20.9957 1.07956H4.71969C4.46388 1.07956 4.23388 1.18517 4.0649 1.3518C3.89592 1.51842 3.79265 1.75311 3.79265 2.00657V2.82328H3.79031ZM2.71306 5.89298V2.00657C2.71306 1.45506 2.93837 0.952828 3.30214 0.589064C3.66592 0.225299 4.16816 0 4.71969 0H20.9934C21.5449 0 22.0471 0.225299 22.4109 0.589064C22.7747 0.952828 23 1.45506 23 2.00657V12.1004C23 12.652 22.7747 13.1542 22.4109 13.518C22.0471 13.8817 21.5449 14.107 20.9934 14.107H20.2869V17.9934C20.2869 18.5449 20.0616 19.0472 19.6979 19.4109C19.3341 19.7747 18.8318 20 18.2803 20H2.00663C1.4551 20 0.952857 19.7747 0.589082 19.4109C0.225306 19.0472 0 18.5449 0 17.9934V7.89955C0 7.34804 0.225306 6.84581 0.589082 6.48205C0.952857 6.11828 1.4551 5.89298 2.00663 5.89298H2.71306ZM18.2803 6.97019H2.00663C1.75082 6.97019 1.52082 7.0758 1.35184 7.24243C1.18286 7.41141 1.07959 7.64375 1.07959 7.89721V17.9911C1.07959 18.2469 1.1852 18.4769 1.35184 18.6459C1.52082 18.8148 1.75316 18.9181 2.00663 18.9181H18.2803C18.5361 18.9181 18.7661 18.8125 18.9351 18.6459C19.1041 18.4792 19.2073 18.2445 19.2073 17.9911V7.89721C19.2073 7.6414 19.1017 7.41141 18.9351 7.24243C18.7661 7.07346 18.5338 6.97019 18.2803 6.97019ZM6.2898 10.1924H3.72224V12.0887H6.2898V10.1924Z" fill="white"/>
</g>
<defs>
<clipPath id="clip0_3263_63297">
<rect width="23" height="20" fill="white"/>
</clipPath>
</defs>
</svg>
