<svg width="23" height="26" viewBox="0 0 23 26" fill="none" xmlns="http://www.w3.org/2000/svg">
<g clip-path="url(#clip0_3263_62743)">
<path d="M21.1599 4.07964L18.1114 0.183871C18.0187 0.0689516 17.8798 0 17.7293 0H4.35832C4.19625 0 4.05347 0.0766129 3.96472 0.199194L0.93164 4.07964C0.433845 4.71552 0.418409 5.57742 0.889192 6.22863L9.57552 18.2492C10.301 19.249 11.7944 19.249 12.516 18.2492L21.2023 6.22863C21.6731 5.57742 21.6577 4.71169 21.1599 4.07964ZM17.4978 0.957661L20.4035 4.66956H15.0513L14.0518 0.957661H17.4978ZM13.0485 0.957661L14.048 4.66956H8.03969L9.03914 0.957661H13.0485ZM4.59757 0.957661H8.04355L7.0441 4.66956H1.69184L4.59757 0.957661ZM1.67254 5.67319L1.64553 5.63105H7.06725L10.301 17.6095L1.67254 5.67319ZM8.0667 5.63105H14.0287L11.0496 16.671L8.07056 5.63105H8.0667ZM20.4151 5.67319L11.7905 17.6095L15.0243 5.63105H20.446C20.446 5.63105 20.4267 5.65786 20.419 5.67319H20.4151Z" fill="white"/>
</g>
<path d="M0.605469 20.9805H22.0938V22.1875H0.605469V20.9805Z" fill="white"/>
<path d="M0.605469 24.168H22.0938V25.375H0.605469V24.168Z" fill="white"/>
<path d="M1.20703 20.9805L1.20703 25.375H0L1.92085e-07 20.9805L1.20703 20.9805Z" fill="white"/>
<path d="M22.0938 20.9805V25.375H20.8867V20.9805L22.0938 20.9805Z" fill="white"/>
<defs>
<clipPath id="clip0_3263_62743">
<rect width="21" height="19" fill="white" transform="translate(0.546875)"/>
</clipPath>
</defs>
</svg>
