<svg width="33" height="21" viewBox="0 0 33 21" fill="none" xmlns="http://www.w3.org/2000/svg">
<path fill-rule="evenodd" clip-rule="evenodd" d="M22.9925 3.76212C23.0089 3.78506 23.022 3.81129 23.0352 3.8375C23.0631 3.89813 23.0779 3.96204 23.0812 4.02431L26.6035 10.479C26.6117 10.4937 26.6199 10.5085 26.6298 10.5216L26.6314 10.5232C26.6396 10.5331 26.6479 10.5445 26.6561 10.556C26.73 10.6494 26.8302 10.715 26.9403 10.7477C27.0799 10.7887 27.2344 10.7772 27.3691 10.7035L31.2529 8.59458C31.3876 8.52084 31.4812 8.39794 31.5223 8.25866C31.5634 8.11938 31.5519 7.96535 31.4796 7.82936L27.9342 1.33398C27.8603 1.19962 27.7371 1.10621 27.5974 1.06525C27.4578 1.02429 27.3034 1.03575 27.167 1.10785L23.2832 3.21675C23.1485 3.29049 23.0549 3.41339 23.0138 3.55267C22.9957 3.62149 22.9875 3.69166 22.9925 3.76212ZM22.2878 4.75376L25.4701 10.5855C25.1645 10.7657 24.9723 10.9935 24.7866 11.2131C24.6782 11.3425 24.5714 11.4687 24.4268 11.5556C24.1853 11.2377 23.9077 10.9182 23.5939 10.6003C23.216 10.2168 22.7856 9.8334 22.2993 9.44667C22.5983 9.35491 22.8809 9.21071 23.147 9.01737C23.382 8.84695 23.4345 8.51922 23.2637 8.28653C23.0928 8.05221 22.7659 7.99977 22.5309 8.17019C22.2894 8.34552 22.0348 8.45531 21.7654 8.50119C21.5173 8.5438 21.2511 8.53233 20.9686 8.47006L17.3674 5.62705C17.2688 5.53857 17.1357 5.48941 16.9928 5.49596L15.6227 5.56806C15.4945 5.57462 15.368 5.62705 15.2711 5.72701L14.0291 7.00843C13.6463 7.29847 13.2339 7.43773 12.8823 7.441C12.6967 7.44264 12.5307 7.40659 12.4043 7.33613C12.3057 7.28042 12.2334 7.20177 12.1956 7.10181C12.1463 6.97072 12.148 6.79211 12.2153 6.56763L13.4606 3.99335L15.6719 3.06917C16.0711 2.94628 16.4966 2.93481 16.9468 3.03312C17.4281 3.138 17.9374 3.36904 18.4747 3.72298C18.4927 3.73772 18.5141 3.75083 18.5338 3.7623L20.9636 5.12401V5.12237C21.1049 5.20102 21.279 5.21413 21.4367 5.14203L22.2878 4.75376ZM26.0779 11.4526C25.8594 11.5656 25.7214 11.7295 25.5867 11.8885C25.4158 12.0917 25.2483 12.2883 25.0035 12.4423C25.0544 12.5357 25.1021 12.6291 25.1464 12.7209C25.1645 12.7602 25.1776 12.7995 25.1858 12.8389C25.2778 13.1912 25.2713 13.5304 25.1628 13.8581C25.0561 14.1826 24.8556 14.4808 24.5583 14.7561C24.5418 14.7724 24.5238 14.7856 24.5057 14.7987C24.256 14.9986 23.9865 15.1231 23.7007 15.1723L23.6777 15.1755C23.6136 15.1854 23.5495 15.1919 23.4838 15.1936C23.4674 15.2984 23.4411 15.4017 23.4049 15.5033C23.2965 15.8146 23.1076 16.1047 22.8365 16.3717L22.8332 16.375C22.5473 16.6536 22.2516 16.8371 21.946 16.9223C21.8557 16.9485 21.7653 16.9649 21.6766 16.9748C21.6635 17.0583 21.6454 17.1403 21.6208 17.2206C21.5337 17.509 21.3743 17.7728 21.141 18.012C20.8552 18.3561 20.52 18.5642 20.1373 18.6347C19.9845 18.6626 19.8284 18.6675 19.6674 18.6511C19.651 18.7183 19.628 18.7855 19.6033 18.851C19.485 19.1525 19.2846 19.4163 19.002 19.6408L18.9593 19.672C18.6652 19.8719 18.3679 19.9833 18.0689 20.0062C17.7501 20.0325 17.4413 19.9571 17.1472 19.7817C17.0963 19.7522 17.0519 19.7146 17.0158 19.672L16.8958 19.5327L16.1089 20.2143C16.0432 20.2717 15.9643 20.3094 15.8855 20.329C15.317 20.4618 14.8389 20.4487 14.4496 20.2979C14.1999 20.2012 13.9929 20.0554 13.8302 19.862C13.6084 19.9456 13.385 19.9702 13.1665 19.9472C12.9118 19.921 12.6736 19.8342 12.4584 19.7047C12.2612 19.5867 12.0789 19.4278 11.9212 19.2508C11.6813 18.9821 11.4973 18.656 11.3955 18.3414C11.2147 18.3283 11.039 18.2857 10.873 18.2185C10.5691 18.0956 10.3013 17.8924 10.0894 17.6433C9.88236 17.4008 9.72629 17.1108 9.63922 16.8109C9.61786 16.7355 9.59979 16.6568 9.58665 16.5798C9.355 16.5995 9.12994 16.5733 8.91965 16.511C8.60751 16.4176 8.32988 16.2439 8.11135 16.0161C7.8912 15.7867 7.7302 15.5065 7.65132 15.2017C7.53632 14.756 7.59546 14.2644 7.89939 13.8138C7.91582 13.7909 7.93225 13.7696 7.95032 13.7499C7.98975 13.704 8.02918 13.6565 8.06861 13.6123C7.77618 13.3501 7.57081 13.0961 7.36872 12.8454C7.12065 12.5406 6.87749 12.2391 6.43391 11.9359C6.28605 12.0408 6.12176 12.1211 5.95092 12.1719C5.55498 12.2882 5.11468 12.2538 4.72531 12.0425L0.841535 9.93356C0.450529 9.72217 0.182743 9.36985 0.0660745 8.97662C-0.0505684 8.58171 -0.0160685 8.14255 0.19586 7.75419L3.7412 1.25881C3.95477 0.870458 4.30637 0.601725 4.7023 0.485359C5.09659 0.369018 5.53854 0.403429 5.92791 0.614809L9.81169 2.72371C10.2027 2.93509 10.4705 3.28742 10.5871 3.68232C10.6561 3.91829 10.6726 4.16902 10.6299 4.41643L10.6364 4.41971L10.6644 4.43282C10.9108 4.55244 11.1999 4.69172 11.4464 4.80315C11.5433 4.83264 11.6402 4.84247 11.7372 4.83428C11.7914 4.82936 11.8472 4.81953 11.9031 4.80315L12.5947 3.37755C12.6473 3.25957 12.7426 3.16126 12.8724 3.10718L15.2841 2.10108L15.3252 2.08633C15.915 1.89789 16.5311 1.87331 17.1718 2.01423C17.7764 2.14696 18.404 2.42716 19.0529 2.85811L21.2445 4.08546L21.9428 3.76592C21.9378 3.59551 21.9608 3.42509 22.0085 3.26287C22.1251 2.86796 22.3929 2.51731 22.7839 2.30425L26.6677 0.195357C27.0587 -0.0160278 27.499 -0.050439 27.8933 0.0659064C28.2892 0.182248 28.6408 0.449344 28.8527 0.839361L32.3981 7.33473C32.6116 7.72473 32.6445 8.1639 32.5279 8.55717C32.4112 8.95208 32.1434 9.30273 31.7524 9.51578L27.867 11.6247C27.4793 11.8344 27.0389 11.8672 26.6447 11.7509C26.4393 11.6902 26.2455 11.5902 26.0779 11.4526ZM5.82924 11.0872C5.8391 11.0593 5.85224 11.0315 5.86539 11.0052C5.9081 10.9266 5.97053 10.8627 6.03953 10.8184L9.53886 4.40654C9.61279 4.27217 9.62429 4.11814 9.58157 3.97723C9.5405 3.83795 9.44686 3.71505 9.31214 3.64132L5.42837 1.53242C5.29365 1.45868 5.13922 1.44721 4.99795 1.48981C4.8583 1.53078 4.73509 1.62418 4.66116 1.75855L1.11582 8.25392C1.04189 8.38829 1.03038 8.54232 1.0731 8.68323C1.11417 8.82251 1.20782 8.94541 1.34253 9.01914L5.22631 11.128C5.36103 11.2018 5.51546 11.2132 5.65673 11.1723C5.71916 11.151 5.77831 11.1232 5.82924 11.0872ZM7.07617 11.1036L10.2042 5.37165C10.4112 5.47161 10.6544 5.59123 11.0207 5.75345C11.0519 5.77148 11.0864 5.78623 11.1209 5.7977C11.2097 5.82555 11.2984 5.84686 11.3871 5.8616L11.2491 6.14508C11.2359 6.17458 11.2244 6.20407 11.2162 6.23357C11.0684 6.7055 11.0782 7.11844 11.2064 7.46092C11.3345 7.8083 11.5744 8.07375 11.8882 8.24909C12.1724 8.40804 12.5174 8.48833 12.887 8.48506C13.4653 8.4785 14.1208 8.2622 14.7024 7.80829C14.7221 7.79355 14.7402 7.77552 14.7583 7.75913L15.8804 6.60063L16.8497 6.54983L20.4081 9.36008L20.4098 9.36171L20.4196 9.36663L20.4213 9.36827L20.4377 9.37646L20.4426 9.37974L20.4525 9.38465C21.4185 10.0401 22.2169 10.689 22.8478 11.3313C23.2207 11.7115 23.5345 12.0868 23.7875 12.4587L23.804 12.4817C23.9502 12.6996 24.0767 12.9159 24.1818 13.1306C24.2147 13.2731 24.2114 13.4075 24.1703 13.5337C24.1211 13.6844 24.0143 13.8352 23.8516 13.9859C23.7465 14.0679 23.6397 14.1187 23.5296 14.1367L23.5181 14.1383C23.4442 14.1481 23.3653 14.1449 23.2815 14.1285C22.7493 13.4206 22.235 12.8045 21.7372 12.2818C21.1967 11.7148 20.6727 11.2527 20.1683 10.8988C19.9317 10.7332 19.6031 10.789 19.4372 11.0266C19.2696 11.2625 19.3271 11.5903 19.5653 11.7558C20.0155 12.0704 20.4853 12.4866 20.9782 13.0028C21.4563 13.5042 21.9524 14.099 22.465 14.784C22.4749 14.9151 22.4601 15.0396 22.419 15.1592C22.3632 15.3182 22.2613 15.4738 22.1102 15.623C21.9525 15.777 21.8029 15.8737 21.6666 15.913C21.5976 15.9327 21.5302 15.9359 21.4612 15.9261C21.1425 15.5247 20.7712 15.1052 20.3474 14.6709C19.8824 14.1957 19.3518 13.6976 18.7554 13.1781C18.5385 12.988 18.2067 13.011 18.0161 13.2273C17.8255 13.4436 17.8485 13.7746 18.0654 13.9647C18.6371 14.4628 19.148 14.9396 19.5965 15.4001C19.9991 15.813 20.3506 16.2096 20.6496 16.5897C20.6611 16.7077 20.6513 16.8175 20.6217 16.9175C20.5823 17.0502 20.5034 17.1764 20.3851 17.2944C20.3703 17.3091 20.3556 17.3255 20.3441 17.3419C20.2143 17.4959 20.0845 17.5844 19.9531 17.609C19.8282 17.6319 19.6787 17.6057 19.5045 17.5303C19.0938 17.0518 18.711 16.6258 18.3578 16.2554C17.9832 15.8622 17.6382 15.5246 17.3212 15.2444C17.1043 15.0527 16.7724 15.074 16.5819 15.2903C16.3913 15.5066 16.411 15.8359 16.6279 16.0277C16.9137 16.28 17.2374 16.5979 17.5988 16.9781C17.9307 17.3271 18.2905 17.7269 18.6765 18.1759C18.6815 18.2873 18.6667 18.3889 18.6322 18.4774C18.5862 18.597 18.4975 18.7101 18.3677 18.815C18.2297 18.9067 18.1048 18.9575 17.9931 18.9657C17.9143 18.9723 17.8337 18.9575 17.7533 18.9215C16.8907 17.9301 16.3436 17.2894 16.1104 17.0108C16.0874 16.6929 16.002 16.3701 15.8426 16.0752C15.5945 15.6163 15.1772 15.2296 14.5513 15.0379C14.5152 14.8363 14.4462 14.6413 14.3459 14.4611C14.2112 14.2153 14.0207 13.9941 13.7939 13.822C13.5639 13.6467 13.2945 13.5189 13.0021 13.4665C12.9199 13.4517 12.8378 13.4435 12.7556 13.4402C12.7491 13.3894 12.7392 13.3403 12.7294 13.2895C12.6587 12.9699 12.4993 12.6553 12.2529 12.3456L12.2234 12.3112C11.9178 11.9901 11.5728 11.8 11.19 11.7442H11.1884C10.8154 11.6885 10.4244 11.7639 10.017 11.9671C9.69496 12.126 9.35817 12.3604 9.00825 12.6668C8.93925 12.7258 8.87025 12.7897 8.80124 12.8552C8.55153 12.6324 8.37246 12.4112 8.19502 12.1932C7.89766 11.8278 7.60685 11.4706 7.07617 11.1036ZM9.86249 15.423L11.7025 13.8106C11.7255 13.7123 11.7255 13.6123 11.7042 13.514C11.6697 13.36 11.5826 13.1928 11.4413 13.0126C11.3066 12.8782 11.1702 12.7996 11.0289 12.7783C10.8729 12.7553 10.6905 12.7963 10.4835 12.8995L10.4802 12.9012C10.2436 13.0175 9.98241 13.201 9.69818 13.4518C9.54211 13.5878 9.38275 13.7434 9.21683 13.9155H9.21519C9.06897 14.0695 8.91783 14.235 8.76505 14.4169C8.65333 14.5906 8.63362 14.7774 8.67633 14.9445C8.70919 15.074 8.77819 15.1953 8.87348 15.2919C8.96876 15.3919 9.09033 15.4673 9.22505 15.5082C9.4107 15.5639 9.6325 15.5476 9.86249 15.423ZM11.5974 17.2911L13.1663 15.9671C13.2616 15.895 13.3405 15.813 13.3963 15.718C13.4506 15.6279 13.4916 15.5246 13.5212 15.4067C13.5442 15.2641 13.5048 15.1068 13.4243 14.961C13.3586 14.8413 13.2649 14.7332 13.1565 14.6496C13.0513 14.5693 12.9347 14.512 12.8164 14.4907C12.7014 14.471 12.5766 14.4825 12.4533 14.5415L10.6264 16.1424C10.6034 16.2587 10.6149 16.3915 10.6527 16.5226C10.6987 16.6815 10.7825 16.8355 10.8926 16.9666C10.9977 17.0912 11.1259 17.1911 11.2655 17.2468C11.369 17.2894 11.4824 17.3074 11.5974 17.2911ZM16.2153 18.7445C16.0412 18.543 15.8867 18.3627 15.7553 18.2071L14.6825 19.2328C14.7252 19.2722 14.7761 19.3033 14.8303 19.3246C14.9979 19.3885 15.2296 19.3934 15.5302 19.3377L16.2153 18.7445ZM15.0636 17.296C15.0489 17.2255 15.0489 17.1534 15.0636 17.083C15.0505 16.906 15.0045 16.729 14.9174 16.57C14.8123 16.3734 14.6381 16.203 14.3851 16.0916C14.3572 16.1506 14.326 16.2063 14.2931 16.2604C14.1634 16.475 13.9974 16.6569 13.8003 16.8044L12.3808 18.0022C12.4285 18.171 12.5468 18.3758 12.7094 18.5577C12.7965 18.656 12.8967 18.7429 13.0051 18.8068C13.0955 18.8609 13.1875 18.8986 13.2729 18.9068C13.3879 18.9182 13.516 18.8805 13.6508 18.7691L15.0505 17.432L15.0554 17.4009C15.0571 17.3681 15.0604 17.332 15.0636 17.296Z" fill="white"/>
</svg>
