<svg width="25" height="25" viewBox="0 0 25 25" fill="none" xmlns="http://www.w3.org/2000/svg">
<g clip-path="url(#clip0_3263_60115)">
<path d="M24.1739 10.3993L22.5 9.73063C22.2717 8.91523 21.9457 8.12702 21.5326 7.39316L22.2446 5.73519C22.4293 5.31119 22.3641 4.81108 22.0652 4.45774C21.8424 4.19138 21.5978 3.92502 21.3424 3.66409C21.087 3.40317 20.8152 3.15855 20.5543 2.94111C20.1957 2.64213 19.7011 2.57146 19.2717 2.76172L17.6141 3.47383C16.8804 3.05526 16.0924 2.72911 15.2772 2.50623L14.6087 0.831955C14.4402 0.397078 14.038 0.0981 13.5761 0.0546123C12.8641 -0.00518328 12.1467 -0.00518328 11.4348 0.0546123C10.9728 0.0981 10.5707 0.397078 10.4022 0.831955L9.7337 2.50623C8.91848 2.73454 8.13043 3.0607 7.39674 3.47383L5.73913 2.76172C5.31522 2.57146 4.81522 2.64213 4.45652 2.94111C4.19565 3.15855 3.92935 3.40317 3.66304 3.66409C3.39674 3.92502 3.15761 4.18594 2.93478 4.45231C2.63587 4.81108 2.57065 5.30575 2.75543 5.72976L3.46739 7.38773C3.04891 8.12158 2.72283 8.9098 2.5 9.72519L0.826087 10.3938C0.391304 10.5623 0.0923913 10.9646 0.048913 11.4266C0.0163043 11.7637 0 12.1279 0 12.4975C0 12.8672 0.0163043 13.2314 0.048913 13.5684C0.0923913 14.0305 0.391304 14.4327 0.826087 14.6013L2.5 15.2699C2.72826 16.0853 3.05435 16.8735 3.46739 17.6073L2.75543 19.2653C2.56522 19.6893 2.63587 20.184 2.93478 20.5428C3.15217 20.8037 3.39674 21.07 3.65761 21.3364C3.91848 21.6028 4.18478 21.842 4.44565 22.0594C4.80435 22.3584 5.29891 22.429 5.72826 22.2388L7.3913 21.5267C8.125 21.9452 8.91304 22.2714 9.72826 22.4943L10.3967 24.1685C10.5652 24.6034 10.9674 24.9024 11.4293 24.9459C11.7717 24.9785 12.1304 24.9948 12.5 24.9948C12.8696 24.9948 13.2283 24.9785 13.5707 24.9459C14.0326 24.9024 14.4348 24.6034 14.6033 24.1685L15.2717 22.4943C16.087 22.266 16.875 21.9398 17.6087 21.5267L19.2663 22.2388C19.6902 22.4236 20.1902 22.3584 20.5435 22.0594C20.8043 21.842 21.0707 21.5973 21.337 21.3364C21.6033 21.0755 21.8424 20.8091 22.0598 20.5482C22.3587 20.1894 22.4239 19.6947 22.2391 19.2653L21.5272 17.6073C21.9457 16.8735 22.2717 16.0853 22.4946 15.2699L24.1685 14.6013C24.6033 14.4327 24.9022 14.0305 24.9457 13.5684C24.9783 13.226 24.9946 12.8672 24.9946 12.4975C24.9946 12.1279 24.9783 11.7637 24.9457 11.4266C24.9022 10.9646 24.6033 10.5678 24.1685 10.3938L24.1739 10.3993ZM23.8696 13.476C23.8587 13.5304 23.8207 13.5793 23.7717 13.5956L21.8478 14.3675C21.6848 14.4327 21.5652 14.5686 21.5217 14.7426C21.2989 15.645 20.9402 16.5038 20.462 17.2975C20.3696 17.4497 20.3587 17.6291 20.4293 17.7922L21.25 19.7002C21.2717 19.7491 21.2663 19.8089 21.2337 19.8578C21.038 20.097 20.8152 20.3362 20.5761 20.5754C20.337 20.8146 20.0924 21.0374 19.8587 21.2331C19.8152 21.2657 19.7554 21.2712 19.7011 21.2494L17.7935 20.4286C17.6304 20.3579 17.4457 20.3742 17.2989 20.4612C16.5054 20.9396 15.6467 21.2984 14.7446 21.5212C14.5761 21.5647 14.4348 21.6843 14.3696 21.8474L13.5978 23.7717C13.5815 23.8261 13.5326 23.8641 13.4783 23.8696C12.8315 23.9239 12.1793 23.9239 11.5326 23.8696C11.4783 23.8587 11.4293 23.8206 11.413 23.7717L10.6413 21.8474C10.5761 21.6843 10.4402 21.5647 10.2663 21.5212C9.36413 21.2984 8.50543 20.9396 7.71196 20.4612C7.625 20.4123 7.53261 20.3851 7.42935 20.3851C7.35326 20.3851 7.28261 20.4014 7.21739 20.4286L5.30978 21.244C5.26087 21.2657 5.20109 21.2603 5.15217 21.2277C4.91304 21.032 4.67391 20.8091 4.43478 20.5699C4.19565 20.3308 3.97283 20.0861 3.77717 19.8524C3.74457 19.8089 3.73913 19.7491 3.76087 19.6947L4.58152 17.7867C4.65217 17.6236 4.63587 17.4388 4.54891 17.2921C4.07065 16.4984 3.71196 15.6395 3.48913 14.7372C3.44565 14.5686 3.32609 14.4273 3.16304 14.3621L1.23913 13.5902C1.18478 13.5739 1.14674 13.5249 1.1413 13.4706C1.11413 13.1607 1.09783 12.8346 1.09783 12.4975C1.09783 12.1605 1.11413 11.8343 1.1413 11.5245C1.15217 11.4701 1.19022 11.4212 1.23913 11.4049L3.16848 10.633C3.33152 10.5678 3.45109 10.4319 3.49457 10.2579C3.71739 9.35555 4.07609 8.49666 4.55435 7.70301C4.64674 7.55081 4.65761 7.37142 4.58696 7.20834L3.7663 5.30032C3.74457 5.25139 3.75 5.1916 3.78261 5.14267C3.9837 4.90349 4.20652 4.65887 4.44022 4.42513C4.67391 4.19138 4.92391 3.96307 5.15761 3.76738C5.20109 3.73476 5.26087 3.72932 5.31522 3.75107L7.22283 4.5719C7.38587 4.64257 7.57065 4.62626 7.71739 4.53928C8.51087 4.06092 9.36957 3.70214 10.2717 3.47927C10.4402 3.43578 10.5815 3.31619 10.6467 3.15311L11.4185 1.22334C11.4348 1.16899 11.4837 1.13093 11.538 1.1255C12.1848 1.07114 12.837 1.07114 13.4837 1.1255C13.538 1.13637 13.587 1.17442 13.6033 1.22334L14.375 3.15311C14.4402 3.31619 14.5761 3.43578 14.75 3.47927C15.6522 3.70214 16.5109 4.06092 17.3043 4.53928C17.4565 4.63169 17.6359 4.64257 17.7989 4.5719L19.7065 3.75107C19.7554 3.72932 19.8152 3.73476 19.8641 3.76738C20.1033 3.96307 20.3424 4.18595 20.5815 4.42513C20.8207 4.66431 21.038 4.90349 21.2391 5.14267C21.2717 5.18616 21.2772 5.24596 21.2554 5.30032L20.4348 7.20834C20.3641 7.37142 20.3804 7.55624 20.4674 7.70301C20.9457 8.49666 21.3043 9.35555 21.5272 10.2579C21.5707 10.4264 21.6902 10.5678 21.8533 10.633L23.7826 11.4049C23.837 11.4212 23.875 11.4701 23.8804 11.5245C23.9076 11.8343 23.9239 12.1605 23.9239 12.4975C23.9239 12.8346 23.9076 13.1607 23.8804 13.4706L23.8696 13.476Z" fill="white"/>
<path d="M14.1109 12.3079L19.4399 10.8088C19.7113 10.6676 19.8221 10.3286 19.6836 10.0517C19.5451 9.77489 19.2128 9.66189 18.9414 9.80314L13.6272 11.3403C12.9804 10.7097 11.9478 10.7261 11.3228 11.3675C10.6924 12.0144 10.7087 13.0472 11.35 13.6723C11.6544 13.9713 12.0674 14.1398 12.4967 14.1344C12.562 14.1344 12.6272 14.1235 12.6924 14.1127L13.9258 17.0286C14.0575 17.2729 14.3735 17.3726 14.6315 17.248C14.8896 17.1233 14.995 16.8242 14.8633 16.58L13.6598 13.6289C13.9533 13.3244 14.1163 12.9222 14.1217 12.4982C14.1217 12.4329 14.1109 12.3677 14.1 12.3025L14.1109 12.3079ZM11.9587 12.5036C11.9587 12.2046 12.2033 11.96 12.5022 11.96C12.8011 11.96 13.0457 12.2046 13.0457 12.5036C13.0457 12.8026 12.8011 13.0472 12.5022 13.0472C12.2033 13.0472 11.9587 12.8026 11.9587 12.5036Z" fill="white"/>
<path d="M12.4966 8.15423C12.7955 8.15423 13.0401 7.90961 13.0401 7.61063V7.06703C13.0401 6.76806 12.7955 6.52344 12.4966 6.52344C12.1977 6.52344 11.9531 6.76806 11.9531 7.06703V7.61063C11.9531 7.90961 12.1977 8.15423 12.4966 8.15423Z" fill="white"/>
<path d="M9.04212 8.27268C8.82473 8.06611 8.48234 8.07155 8.27582 8.28355C8.07473 8.49556 8.07473 8.82715 8.27582 9.03915L8.66168 9.42511C8.87908 9.63167 9.22147 9.62624 9.42799 9.41423C9.62908 9.20223 9.62908 8.87064 9.42799 8.65863L9.04212 8.27268Z" fill="white"/>
<path d="M7.61039 11.959H7.06692C6.768 11.959 6.52344 12.2036 6.52344 12.5026C6.52344 12.8016 6.768 13.0462 7.06692 13.0462H7.61039C7.90931 13.0462 8.15387 12.8016 8.15387 12.5026C8.15387 12.2036 7.90931 11.959 7.61039 11.959Z" fill="white"/>
<path d="M8.65393 15.5786L8.26806 15.9645C8.05067 16.1711 8.04523 16.519 8.25719 16.731C8.46371 16.9484 8.81154 16.9539 9.0235 16.7419L9.03436 16.731L9.42023 16.3451C9.62676 16.1276 9.62132 15.7851 9.40936 15.5786C9.19741 15.3775 8.86589 15.3775 8.65393 15.5786Z" fill="white"/>
<path d="M12.4966 16.8516C12.1977 16.8516 11.9531 17.0962 11.9531 17.3952V17.9388C11.9531 18.2377 12.1977 18.4824 12.4966 18.4824C12.7955 18.4824 13.0401 18.2377 13.0401 17.9388V17.3952C13.0401 17.0962 12.7955 16.8516 12.4966 16.8516Z" fill="white"/>
<path d="M16.339 15.5793C16.1216 15.3728 15.7792 15.3782 15.5727 15.5902C15.3716 15.8022 15.3716 16.1338 15.5727 16.3458L15.9586 16.7317C16.176 16.9383 16.5183 16.9329 16.7249 16.7209C16.926 16.5089 16.926 16.1773 16.7249 15.9653L16.339 15.5793Z" fill="white"/>
<path d="M16.8516 12.5026C16.8516 12.8016 17.0961 13.0462 17.395 13.0462H17.9385C18.2374 13.0462 18.482 12.8016 18.482 12.5026C18.482 12.2036 18.2374 11.959 17.9385 11.959H17.395C17.0961 11.959 16.8516 12.2036 16.8516 12.5026Z" fill="white"/>
<path d="M15.9535 9.58396C16.1002 9.58396 16.2361 9.52417 16.3393 9.42632L16.7252 9.04037C16.9317 8.82293 16.9263 8.48046 16.7143 8.27389C16.5024 8.07276 16.1709 8.07276 15.9589 8.27389L15.573 8.65985C15.3611 8.87185 15.3611 9.21432 15.573 9.42632C15.6763 9.5296 15.8122 9.58396 15.9589 9.58396H15.9535Z" fill="white"/>
</g>
<defs>
<clipPath id="clip0_3263_60115">
<rect width="25" height="25" fill="white"/>
</clipPath>
</defs>
</svg>
